<svg xmlns="http://www.w3.org/2000/svg" xmlns:xlink="http://www.w3.org/1999/xlink" width="40" height="40" viewBox="0 0 40 40">
  <defs>
    <linearGradient id="linear-gradient" x1="0.5" x2="0.5" y2="1" gradientUnits="objectBoundingBox">
      <stop offset="0" stop-color="#059ca4"/>
      <stop offset="1" stop-color="#0c4d71"/>
    </linearGradient>
    <clipPath id="clip-path">
      <rect id="Rectangle_72" data-name="Rectangle 72" width="18" height="18" transform="translate(612 355)" fill="#fff"/>
    </clipPath>
  </defs>
  <g id="Group_2561" data-name="Group 2561" transform="translate(-601 -344)">
    <path id="Path_2092" data-name="Path 2092" d="M20,0A20,20,0,1,1,0,20,20,20,0,0,1,20,0Z" transform="translate(601 344)" fill="url(#linear-gradient)"/>
    <g id="Mask_Group_59" data-name="Mask Group 59" clip-path="url(#clip-path)">
      <g id="Layer_2" data-name="Layer 2" transform="translate(612.01 355.009)">
        <g id="Layer_1" data-name="Layer 1">
          <path id="Path_358" data-name="Path 358" d="M5.056,13.331l-.989-.408C3.044,12.5,2.016,12.084,1,11.644a1.567,1.567,0,0,1-1-1.423A1.57,1.57,0,0,1,.8,8.678C1.953,8,3.1,7.348,4.248,6.686Q9.826,3.469,15.4.244a1.709,1.709,0,0,1,2.224.391,1.579,1.579,0,0,1,.347,1.252c-.259,1.723-.527,3.445-.789,5.166-.244,1.533-.469,3.066-.706,4.6-.2,1.3-.391,2.607-.605,3.906a1.675,1.675,0,0,1-2.317,1.287q-1.9-.779-3.791-1.572a.139.139,0,0,0-.2.059C9.076,15.99,8.6,16.646,8.1,17.3a1.592,1.592,0,0,1-1.662.652,1.6,1.6,0,0,1-1.311-1.191,1.821,1.821,0,0,1-.061-.488v-2.8ZM16.3,1.682l-14.6,8.425a.293.293,0,0,0,.059.032L5.4,11.649a.125.125,0,0,0,.149-.032l5.549-4.838,1.78-1.553a.581.581,0,0,1,.449-.164A.574.574,0,0,1,13.7,6c-1.382,1.98-2.751,3.964-4.126,5.947L8.81,13.055l5.4,2.231C14.908,10.741,15.6,6.23,16.3,1.682ZM8.029,14.557,6.75,14.029v2.258C7.182,15.7,7.6,15.135,8.029,14.557Z" fill="#fff"/>
        </g>
      </g>
    </g>
  </g>
</svg>
