<svg xmlns="http://www.w3.org/2000/svg" xmlns:xlink="http://www.w3.org/1999/xlink" width="40" height="40" viewBox="0 0 40 40">
  <defs>
    <linearGradient id="linear-gradient" x1="0.5" x2="0.5" y2="1" gradientUnits="objectBoundingBox">
      <stop offset="0" stop-color="#059ca4"/>
      <stop offset="1" stop-color="#0c4d71"/>
    </linearGradient>
    <clipPath id="clip-path">
      <rect id="Rectangle_72" data-name="Rectangle 72" width="18" height="18" transform="translate(612 355)" fill="#fff"/>
    </clipPath>
  </defs>
  <g id="Group_256" data-name="Group 256" transform="translate(-601 -344)">
    <path id="Path_2091" data-name="Path 2091" d="M20,0A20,20,0,1,1,0,20,20,20,0,0,1,20,0Z" transform="translate(601 344)" fill="url(#linear-gradient)"/>
    <g id="Mask_Group_58" data-name="Mask Group 58" clip-path="url(#clip-path)">
      <g id="Layer_2" data-name="Layer 2" transform="translate(613.612 355)">
        <g id="Layer_1" data-name="Layer 1">
          <path id="Path_354" data-name="Path 354" d="M2.468,0H9.816A.673.673,0,0,0,9.9.036a2.377,2.377,0,0,1,1.188.646C12.1,1.7,13.124,2.709,14.134,3.728a2.076,2.076,0,0,1,.642,1.5q0,5,0,10A2.773,2.773,0,0,1,12,18H2.809A2.773,2.773,0,0,1,0,15.179V2.809A2.773,2.773,0,0,1,2.2.067ZM9.642,1.414H2.765A1.375,1.375,0,0,0,1.406,2.8q0,6.191,0,12.387a1.438,1.438,0,0,0,.059.4,1.418,1.418,0,0,0,1.458.986h9.083a1.347,1.347,0,0,0,.9-.333,1.513,1.513,0,0,0,.487-1.228V5.185c0-.131-.067-.178-.2-.174H11.678a1.981,1.981,0,0,1-1.68-.9,1.925,1.925,0,0,1-.345-1.125C9.646,2.468,9.642,1.949,9.642,1.414Z" fill="#fff"/>
          <path id="Path_355" data-name="Path 355" d="M7.38,10.41H3.728a.824.824,0,1,1-.044-1.648h7.36a.824.824,0,0,1,.887.868.792.792,0,0,1-.709.792H10.98Z" fill="#fff"/>
          <path id="Path_356" data-name="Path 356" d="M7.38,13.995H3.728a.824.824,0,1,1-.044-1.648h7.36a.82.82,0,0,1,.887.864.792.792,0,0,1-.705.772,1.727,1.727,0,0,1-.246,0Z" fill="#fff"/>
          <path id="Path_357" data-name="Path 357" d="M5.811,6.825H3.688A.82.82,0,0,1,2.9,5.712a.832.832,0,0,1,.792-.535H7.954A.824.824,0,0,1,8.79,6a.812.812,0,0,1-.836.828C7.241,6.833,6.524,6.825,5.811,6.825Z" fill="#fff"/>
        </g>
      </g>
    </g>
  </g>
</svg>
