<svg xmlns="http://www.w3.org/2000/svg" xmlns:xlink="http://www.w3.org/1999/xlink" width="40" height="40" viewBox="0 0 40 40">
  <defs>
    <linearGradient id="linear-gradient" x1="0.5" x2="0.5" y2="1" gradientUnits="objectBoundingBox">
      <stop offset="0" stop-color="#059ca4"/>
      <stop offset="1" stop-color="#0c4d71"/>
    </linearGradient>
    <clipPath id="clip-path">
      <rect id="Rectangle_72" data-name="Rectangle 72" width="18" height="18" transform="translate(612 355)" fill="#fff"/>
    </clipPath>
  </defs>
  <g id="Group_2562" data-name="Group 2562" transform="translate(-601 -344)">
    <circle id="Ellipse_20" data-name="Ellipse 20" cx="20" cy="20" r="20" transform="translate(601 344)" fill="url(#linear-gradient)"/>
    <g id="Mask_Group_63" data-name="Mask Group 63" clip-path="url(#clip-path)">
      <g id="Layer_2" data-name="Layer 2" transform="translate(612 358.078)">
        <g id="Layer_1" data-name="Layer 1">
          <path id="Path_515" data-name="Path 515" d="M9.015,0h7.251A1.54,1.54,0,0,1,18,1.738v8.371a1.54,1.54,0,0,1-1.738,1.735H1.713A1.533,1.533,0,0,1,0,10.13V1.706A1.532,1.532,0,0,1,1.714,0ZM.894,4.816c-.028.057-.054.087-.054.118,0,1.8-.014,3.591-.009,5.387,0,.52.334.7.809.7H16.356c.609,0,.808-.229.814-.862.005-.8,0-1.6,0-2.4V4.816ZM.825,2.3H17.141C17.275.983,17.128.819,15.88.819H1.7c-.657,0-.853.213-.866.863C.823,1.879.825,2.073.825,2.3Z" fill="#fff"/>
          <path id="Path_516" data-name="Path 516" d="M4.875,6.5a1.611,1.611,0,0,1,1.66,1.634,1.639,1.639,0,0,1-3.278.043A1.612,1.612,0,0,1,4.875,6.5Z" fill="#fff"/>
          <path id="Path_517" data-name="Path 517" d="M3.471,9.72a1.556,1.556,0,0,1-1.738-.648,1.706,1.706,0,0,1,.059-1.941,1.533,1.533,0,0,1,1.693-.557A5.233,5.233,0,0,0,3,8.119,5.763,5.763,0,0,0,3.471,9.72Z" fill="#fff"/>
          <path id="Path_518" data-name="Path 518" d="M15.13,8.539a3.609,3.609,0,0,1-.847-.019.608.608,0,0,1-.366-.4c-.019-.095.213-.341.352-.351a12.332,12.332,0,0,1,1.753,0c.139.011.259.255.388.392-.143.126-.27.32-.433.361a3.979,3.979,0,0,1-.853.017Z" fill="#fff"/>
          <path id="Path_519" data-name="Path 519" d="M8.918,8.54a3.275,3.275,0,0,1-.793-.017c-.161-.042-.28-.247-.418-.38.138-.131.267-.366.414-.377a10.9,10.9,0,0,1,1.7,0c.145.012.273.244.409.375-.135.132-.254.347-.411.381A4.37,4.37,0,0,1,8.918,8.54Z" fill="#fff"/>
          <path id="Path_520" data-name="Path 520" d="M12.019,8.54a3.388,3.388,0,0,1-.793-.016c-.164-.042-.289-.241-.427-.369.134-.135.261-.376.405-.388a10.782,10.782,0,0,1,1.706,0c.149.011.282.237.427.365-.15.136-.283.349-.456.392A3.7,3.7,0,0,1,12.019,8.54Z" fill="#fff"/>
        </g>
      </g>
    </g>
  </g>
</svg>
